<mxfile host="Electron" modified="2023-05-19T16:50:21.268Z" agent="Mozilla/5.0 (Windows NT 10.0; Win64; x64) AppleWebKit/537.36 (KHTML, like Gecko) draw.io/21.2.8 Chrome/112.0.5615.165 Electron/24.2.0 Safari/537.36" etag="Yi3cOhr_zFoRorLBI3cf" version="21.2.8" type="device">
  <diagram name="Pagina-1" id="fmt509-KuOnSyAru8oYV">
    <mxGraphModel dx="-1205" dy="606" grid="1" gridSize="10" guides="1" tooltips="1" connect="1" arrows="1" fold="1" page="1" pageScale="1" pageWidth="827" pageHeight="1169" math="0" shadow="0">
      <root>
        <mxCell id="0" />
        <mxCell id="1" parent="0" />
        <mxCell id="qTv7zq2dGe5wT9OY6Vgh-1" value="Organizzatore" style="shape=umlActor;verticalLabelPosition=bottom;verticalAlign=top;html=1;outlineConnect=0;" vertex="1" parent="1">
          <mxGeometry x="2755" y="520" width="30" height="60" as="geometry" />
        </mxCell>
        <mxCell id="qTv7zq2dGe5wT9OY6Vgh-2" value="Sistema" style="verticalAlign=top;align=center;spacingTop=8;spacingLeft=2;spacingRight=12;shape=cube;size=10;direction=south;fontStyle=4;html=1;whiteSpace=wrap;" vertex="1" parent="1">
          <mxGeometry x="3090" y="535" width="120" height="45" as="geometry" />
        </mxCell>
        <mxCell id="qTv7zq2dGe5wT9OY6Vgh-3" value="" style="endArrow=none;dashed=1;html=1;rounded=0;entryX=0;entryY=0;entryDx=45;entryDy=65;entryPerimeter=0;" edge="1" parent="1" target="qTv7zq2dGe5wT9OY6Vgh-2">
          <mxGeometry width="50" height="50" relative="1" as="geometry">
            <mxPoint x="3145" y="1160" as="sourcePoint" />
            <mxPoint x="2835" y="325" as="targetPoint" />
          </mxGeometry>
        </mxCell>
        <mxCell id="qTv7zq2dGe5wT9OY6Vgh-4" value="Sistema" style="verticalAlign=top;align=center;spacingTop=8;spacingLeft=2;spacingRight=12;shape=cube;size=10;direction=south;fontStyle=4;html=1;whiteSpace=wrap;" vertex="1" parent="1">
          <mxGeometry x="3090" y="535" width="120" height="45" as="geometry" />
        </mxCell>
        <mxCell id="qTv7zq2dGe5wT9OY6Vgh-5" value="" style="endArrow=none;dashed=1;html=1;rounded=0;" edge="1" parent="1">
          <mxGeometry width="50" height="50" relative="1" as="geometry">
            <mxPoint x="2770" y="1160" as="sourcePoint" />
            <mxPoint x="2770" y="580" as="targetPoint" />
          </mxGeometry>
        </mxCell>
        <mxCell id="qTv7zq2dGe5wT9OY6Vgh-6" value="1. verificaStatoTurni()" style="endArrow=classic;html=1;rounded=0;" edge="1" parent="1">
          <mxGeometry width="50" height="50" relative="1" as="geometry">
            <mxPoint x="2780" y="630" as="sourcePoint" />
            <mxPoint x="3140" y="630" as="targetPoint" />
          </mxGeometry>
        </mxCell>
        <mxCell id="qTv7zq2dGe5wT9OY6Vgh-7" value="viene fornito il calendario contenente i turni" style="endArrow=classic;html=1;rounded=0;dashed=1;" edge="1" parent="1">
          <mxGeometry width="50" height="50" relative="1" as="geometry">
            <mxPoint x="3140" y="656.52" as="sourcePoint" />
            <mxPoint x="2780" y="656.52" as="targetPoint" />
          </mxGeometry>
        </mxCell>
        <mxCell id="qTv7zq2dGe5wT9OY6Vgh-8" value="2. creazioneEvento(dataInizio,dataFine, nomeEvento, luogo,&amp;nbsp;numero partecipanti, cliente)" style="endArrow=classic;html=1;rounded=0;" edge="1" parent="1">
          <mxGeometry width="50" height="50" relative="1" as="geometry">
            <mxPoint x="2780" y="702.53" as="sourcePoint" />
            <mxPoint x="3140" y="702.53" as="targetPoint" />
            <mxPoint as="offset" />
          </mxGeometry>
        </mxCell>
        <mxCell id="qTv7zq2dGe5wT9OY6Vgh-9" value="verrà creato un evento" style="endArrow=classic;html=1;rounded=0;dashed=1;" edge="1" parent="1">
          <mxGeometry width="50" height="50" relative="1" as="geometry">
            <mxPoint x="3140" y="729.05" as="sourcePoint" />
            <mxPoint x="2780" y="729.05" as="targetPoint" />
          </mxGeometry>
        </mxCell>
        <mxCell id="qTv7zq2dGe5wT9OY6Vgh-10" value="3. aggiungiServizio(nome, orarioInizio, orarioFine, qtyPersonale, dettaglio)" style="endArrow=classic;html=1;rounded=0;" edge="1" parent="1">
          <mxGeometry width="50" height="50" relative="1" as="geometry">
            <mxPoint x="2780" y="775" as="sourcePoint" />
            <mxPoint x="3140" y="775" as="targetPoint" />
          </mxGeometry>
        </mxCell>
        <mxCell id="qTv7zq2dGe5wT9OY6Vgh-11" value="verrà creato un servizio relativo all&#39;evento" style="endArrow=classic;html=1;rounded=0;dashed=1;" edge="1" parent="1">
          <mxGeometry width="50" height="50" relative="1" as="geometry">
            <mxPoint x="3135" y="800" as="sourcePoint" />
            <mxPoint x="2775" y="800" as="targetPoint" />
            <mxPoint as="offset" />
          </mxGeometry>
        </mxCell>
        <mxCell id="qTv7zq2dGe5wT9OY6Vgh-12" value="LOOP" style="shape=umlFrame;whiteSpace=wrap;html=1;pointerEvents=0;fillColor=#dae8fc;strokeColor=#6c8ebf;width=35;height=15;strokeWidth=2;" vertex="1" parent="1">
          <mxGeometry x="2760" y="755.5" width="395" height="62" as="geometry" />
        </mxCell>
        <mxCell id="qTv7zq2dGe5wT9OY6Vgh-13" value="4. sceltaChef(chef)" style="endArrow=classic;html=1;rounded=0;" edge="1" parent="1">
          <mxGeometry width="50" height="50" relative="1" as="geometry">
            <mxPoint x="2775" y="832" as="sourcePoint" />
            <mxPoint x="3135" y="832" as="targetPoint" />
          </mxGeometry>
        </mxCell>
        <mxCell id="qTv7zq2dGe5wT9OY6Vgh-14" value="verrà assegnato uno chef al relativo evento" style="endArrow=classic;html=1;rounded=0;dashed=1;" edge="1" parent="1">
          <mxGeometry width="50" height="50" relative="1" as="geometry">
            <mxPoint x="3132.5" y="857.48" as="sourcePoint" />
            <mxPoint x="2772.5" y="857.48" as="targetPoint" />
          </mxGeometry>
        </mxCell>
        <mxCell id="qTv7zq2dGe5wT9OY6Vgh-15" value="LOOP" style="shape=umlFrame;whiteSpace=wrap;html=1;pointerEvents=0;fillColor=#dae8fc;strokeColor=#6c8ebf;width=43;height=15;strokeWidth=2;" vertex="1" parent="1">
          <mxGeometry x="2737.5" y="740" width="435" height="190" as="geometry" />
        </mxCell>
        <mxCell id="qTv7zq2dGe5wT9OY6Vgh-16" value="6. assegnamentoPersonale(Turno, Servizio, Personale, ruolo)" style="endArrow=classic;html=1;rounded=0;" edge="1" parent="1">
          <mxGeometry width="50" height="50" relative="1" as="geometry">
            <mxPoint x="2777.5" y="955.28" as="sourcePoint" />
            <mxPoint x="3137.5" y="955.28" as="targetPoint" />
            <mxPoint as="offset" />
          </mxGeometry>
        </mxCell>
        <mxCell id="qTv7zq2dGe5wT9OY6Vgh-17" value="verrà assegnato il numero necessario di personale all&#39;evento" style="endArrow=classic;html=1;rounded=0;dashed=1;" edge="1" parent="1">
          <mxGeometry width="50" height="50" relative="1" as="geometry">
            <mxPoint x="3135" y="980.76" as="sourcePoint" />
            <mxPoint x="2775" y="980.76" as="targetPoint" />
          </mxGeometry>
        </mxCell>
        <mxCell id="qTv7zq2dGe5wT9OY6Vgh-18" value="7. aggiuntaNota(Servizio?,Evento?, descrizione)" style="endArrow=classic;html=1;rounded=0;" edge="1" parent="1">
          <mxGeometry width="50" height="50" relative="1" as="geometry">
            <mxPoint x="2777.5" y="1007.0699999999999" as="sourcePoint" />
            <mxPoint x="3137.5" y="1007.0699999999999" as="targetPoint" />
            <mxPoint as="offset" />
          </mxGeometry>
        </mxCell>
        <mxCell id="qTv7zq2dGe5wT9OY6Vgh-19" value="verrà aggiunta una nota" style="endArrow=classic;html=1;rounded=0;dashed=1;" edge="1" parent="1">
          <mxGeometry width="50" height="50" relative="1" as="geometry">
            <mxPoint x="3135" y="1032.55" as="sourcePoint" />
            <mxPoint x="2775" y="1032.55" as="targetPoint" />
          </mxGeometry>
        </mxCell>
        <mxCell id="qTv7zq2dGe5wT9OY6Vgh-20" value="LOOP" style="shape=umlFrame;whiteSpace=wrap;html=1;pointerEvents=0;fillColor=#dae8fc;strokeColor=#6c8ebf;width=60;height=20;strokeWidth=2;" vertex="1" parent="1">
          <mxGeometry x="2720" y="740" width="470" height="300" as="geometry" />
        </mxCell>
        <mxCell id="qTv7zq2dGe5wT9OY6Vgh-21" value="OPT" style="shape=umlFrame;whiteSpace=wrap;html=1;pointerEvents=0;fillColor=#d5e8d4;strokeColor=#82b366;width=30;height=15;" vertex="1" parent="1">
          <mxGeometry x="2761.25" y="991.5" width="390" height="50" as="geometry" />
        </mxCell>
        <mxCell id="qTv7zq2dGe5wT9OY6Vgh-22" value="caso base" style="text;html=1;align=center;verticalAlign=middle;resizable=0;points=[];autosize=1;strokeColor=none;fillColor=none;" vertex="1" parent="1">
          <mxGeometry x="2905" y="468" width="80" height="30" as="geometry" />
        </mxCell>
        <mxCell id="qTv7zq2dGe5wT9OY6Vgh-23" value="LOOP" style="shape=umlFrame;whiteSpace=wrap;html=1;pointerEvents=0;fillColor=#dae8fc;strokeColor=#6c8ebf;width=33;height=15;strokeWidth=2;" vertex="1" parent="1">
          <mxGeometry x="2738.75" y="931.5" width="432.5" height="60" as="geometry" />
        </mxCell>
        <mxCell id="qTv7zq2dGe5wT9OY6Vgh-24" value="5. approvazioneMenu(servizio)" style="endArrow=classic;html=1;rounded=0;" edge="1" parent="1">
          <mxGeometry width="50" height="50" relative="1" as="geometry">
            <mxPoint x="2776.25" y="893.69" as="sourcePoint" />
            <mxPoint x="3136.25" y="893.69" as="targetPoint" />
          </mxGeometry>
        </mxCell>
        <mxCell id="qTv7zq2dGe5wT9OY6Vgh-25" value="il menu viene confermato per il servizio" style="endArrow=classic;html=1;rounded=0;dashed=1;" edge="1" parent="1">
          <mxGeometry width="50" height="50" relative="1" as="geometry">
            <mxPoint x="3133.75" y="919.1700000000001" as="sourcePoint" />
            <mxPoint x="2773.75" y="919.1700000000001" as="targetPoint" />
            <mxPoint as="offset" />
          </mxGeometry>
        </mxCell>
        <mxCell id="qTv7zq2dGe5wT9OY6Vgh-26" value="OPT" style="shape=umlFrame;whiteSpace=wrap;html=1;pointerEvents=0;fillColor=#d5e8d4;strokeColor=#82b366;width=30;height=15;" vertex="1" parent="1">
          <mxGeometry x="2765" y="817.5" width="390" height="50" as="geometry" />
        </mxCell>
        <mxCell id="qTv7zq2dGe5wT9OY6Vgh-27" value="OPT" style="shape=umlFrame;whiteSpace=wrap;html=1;pointerEvents=0;fillColor=#d5e8d4;strokeColor=#82b366;width=30;height=15;" vertex="1" parent="1">
          <mxGeometry x="2765" y="867.5" width="390" height="62.5" as="geometry" />
        </mxCell>
      </root>
    </mxGraphModel>
  </diagram>
</mxfile>
